<svg width="166" height="172" viewBox="0 0 166 172" fill="none" xmlns="http://www.w3.org/2000/svg">
<path d="M141.684 0H24.3164C10.9095 0 0 11.3038 0 25.1953V146.805C0 160.696 10.9095 172 24.3164 172H141.684C155.091 172 166 160.696 166 146.805V25.1953C166 11.3038 155.091 0 141.684 0ZM83.3242 131.016C59.1889 131.016 39.5547 110.672 39.5547 85.6641C39.5547 60.6564 59.1889 40.3125 83.3242 40.3125C107.46 40.3125 127.094 60.6564 127.094 85.6641C127.094 110.672 107.46 131.016 83.3242 131.016ZM131.957 50.3906C123.912 50.3906 117.367 43.6089 117.367 35.2734C117.367 26.938 123.912 20.1562 131.957 20.1562C140.002 20.1562 146.547 26.938 146.547 35.2734C146.547 43.6089 140.002 50.3906 131.957 50.3906Z" fill="black"/>
<path d="M131.957 30.2344C129.273 30.2344 127.094 32.4928 127.094 35.2734C127.094 38.0541 129.273 40.3125 131.957 40.3125C134.641 40.3125 136.82 38.0541 136.82 35.2734C136.82 32.4928 134.641 30.2344 131.957 30.2344Z" fill="black"/>
<path d="M83.3242 50.3906C64.555 50.3906 49.2812 66.2164 49.2812 85.6641C49.2812 105.112 64.555 120.938 83.3242 120.938C102.093 120.938 117.367 105.112 117.367 85.6641C117.367 66.2164 102.093 50.3906 83.3242 50.3906Z" fill="black"/>
</svg>
