<svg width="172" height="172" viewBox="0 0 172 172" fill="none" xmlns="http://www.w3.org/2000/svg">
<path d="M55.7656 50.7266C67.4119 50.7266 77.9467 56.7026 83.9844 64.937L98.2945 50.5245C89.736 39.3952 73.2632 30.5703 55.7656 30.5703C25.1284 30.5703 0 55.3628 0 86C0 116.637 25.1284 141.43 55.7656 141.43C81.163 141.43 102.528 124.398 109.079 101.117C110.489 96.2789 111.195 91.2398 111.195 86V80.9609H60.8047V101.113H87.5117C81.9688 113.006 69.774 121.273 55.7656 121.273C36.3154 121.273 20.1562 105.45 20.1562 86C20.1562 66.5497 36.3154 50.7266 55.7656 50.7266Z" fill="black"/>
<path d="M156.547 60.8047H136.391V75.9219H121.273V96.0781H136.391V111.195H156.547V96.0781H172V75.9219H156.547V60.8047Z" fill="black"/>
</svg>
