<?xml version="1.0" encoding="utf-8"?>
<!-- Generator: Adobe Illustrator 23.0.1, SVG Export Plug-In . SVG Version: 6.00 Build 0)  -->
<svg version="1.1" id="e28f841e-1350-4768-a008-2029cc8c67c6"
	 xmlns="http://www.w3.org/2000/svg" xmlns:xlink="http://www.w3.org/1999/xlink" x="0px" y="0px" viewBox="0 0 939 827.5"
	 style="enable-background:new 0 0 939 827.5;" xml:space="preserve">
<style type="text/css">
	.st0{fill:#3F3D56;}
	.st1{fill:#FFB400;}
	.st2{fill:#2F2E41;}
	.st3{fill:#FFB8B8;}
	.st4{fill:#FFFFFF;}
	.st5{fill:#FCB61A;}
	.st6{fill:#EFEFEF;}
</style>
<title>services</title>
<path class="st0" d="M471.2,827c-0.2-0.4-5.6-9.4-7.5-28.2c-1.7-17.2-0.6-46.2,14.4-86.7c28.5-76.7-6.6-138.5-6.9-139.1l1.7-1
	c0.1,0.2,9.1,15.9,14.5,41c7.1,33.3,4.5,67.9-7.4,99.8c-28.5,76.5-7.3,112.8-7.1,113.1L471.2,827z"/>
<circle class="st1" cx="460" cy="555.5" r="13"/>
<circle class="st0" cx="501" cy="603.5" r="13"/>
<circle class="st1" cx="473" cy="635.5" r="13"/>
<circle class="st1" cx="507" cy="662.5" r="13"/>
<circle class="st0" cx="463" cy="704.5" r="13"/>
<path class="st0" d="M479,827.5c0,0-13-32,26-56L479,827.5z"/>
<path class="st0" d="M463,826.9c0,0-5.9-34-51.7-33.7L463,826.9z"/>
<rect x="163" y="457.5" class="st0" width="2" height="250.9"/>
<rect x="224" y="418.9" class="st0" width="2" height="328.1"/>
<rect x="285" y="408" class="st0" width="2" height="350"/>
<rect x="346" y="418.9" class="st0" width="2" height="328.1"/>
<rect x="407" y="457.5" class="st0" width="2" height="250.9"/>
<rect x="131.9" y="499" class="st0" width="308.2" height="2"/>
<rect x="111" y="582" class="st0" width="350" height="2"/>
<rect x="131.9" y="665" class="st0" width="308.2" height="2"/>
<circle class="st1" cx="764" cy="326" r="175"/>
<rect x="466" y="291.5" class="st0" width="2" height="250.9"/>
<rect x="527" y="252.9" class="st0" width="2" height="328.1"/>
<rect x="588" y="242" class="st0" width="2" height="350"/>
<rect x="649" y="252.9" class="st0" width="2" height="328.1"/>
<rect x="710" y="291.5" class="st0" width="2" height="250.9"/>
<rect x="434.9" y="333" class="st0" width="308.2" height="2"/>
<rect x="414" y="416" class="st0" width="350" height="2"/>
<rect x="434.9" y="499" class="st0" width="308.2" height="2"/>
<path class="st2" d="M724.3,33.1L724.3,33.1c-48.1,0-87.2,43.3-87.2,96.7v67.9H658l12.1-25.1l-3,25.1h134.2l11-22.9l-2.7,22.9h15.1
	v-53.3C824.6,82.9,779.7,33.1,724.3,33.1z"/>
<path class="st3" d="M682.2,155.1c0,0,27.2,63.5-9.1,76.2L709.4,351l61.7-3.6l16.3-39.9l-3.6-59.9l-5.4-39.9c0,0-38.1,9.1-34.5-58
	L682.2,155.1z"/>
<path class="st3" d="M667.7,229.4c0,0-59.9-5.4-54.4,38.1s10.9,52.6,10.9,52.6l5.4,65.3l-32.6,20h-30.8c0,0-94.3,21.8-47.2,45.3
	s63.5-18.1,63.5-18.1s87.1,0,92.5-14.5S667.7,229.4,667.7,229.4z"/>
<path class="st3" d="M783.8,211.3c0,0,56.2-20,59.9,23.6s3.6,47.2,3.6,47.2l10.9,61.7c0,0,21.8,54.4,21.8,70.7s16.3,67.1,16.3,67.1
	s21.8,70.7-1.8,68.9s-27.2-76.2-27.2-76.2l-49-97.9l-14.5-59.9L783.8,211.3z"/>
<path class="st4" d="M676.8,222.2h-14.5l-1.8,76.2c0,0-23.6,32.6,5.4,61.7l7.3,47.2l132.4-5.4l9.1-49c0,0,18.1-39.9-7.3-76.2
	l-23.6-74.4h-12.7c0,0,29.4,108.4-32.6,110.6C687.7,314.7,676.8,222.2,676.8,222.2z"/>
<path class="st2" d="M887.4,672.6c-40.9,46-90.7,83.2-146.4,109.5c0-90.8,1-164.5,1-164.5s-7.7,77.9-17.5,171.8
	C668.7,813,608.7,825.1,548,825c-1.1,0-2.2,0-3.2,0c49.9-179.3,122.7-384.8,124.7-390.5c0,0,0-0.1,0-0.1l4.4-14.6l1.9-6.2l2-6.5
	l2.7-8.9l117.9-3.6l3.3,7.4l11.2,25.2c1,0.3,1.9,0.7,2.8,1.3C836.8,442.4,863.5,548.7,887.4,672.6z"/>
<path class="st0" d="M811,380l-143.3,5.4c0,0-6.5,49,0,49c1.8,0,150.5,12.7,148.7-9.1S811,380,811,380z"/>
<circle class="st3" cx="710.3" cy="124.9" r="51"/>
<path class="st2" d="M749.1,59.7c-8.8-11.3-21.7-18.4-36.1-18.4h-1.7c-33,0-59.7,29.9-59.7,66.7v0h11.1l1.8-13.6L667,108h65.6
	l5.5-11.5l-1.4,11.5h12.9c6,29.9-2.6,59.8-25.9,89.7h22l11-23l-2.7,23h41.9l8.2-52.9C804,105.2,781,71.6,749.1,59.7z"/>
<circle class="st2" cx="761.1" cy="32.6" r="32.6"/>
<ellipse transform="matrix(0.1602 -0.9871 0.9871 0.1602 27.4088 865.9744)" class="st5" cx="522.6" cy="416.9" rx="16.4" ry="16.4"/>
<polygon class="st6" points="522.6,416.9 164.8,416.9 164.8,272.4 462.4,272.4 "/>
<path class="st1" d="M524.3,418H121V240.7h330.1l0.3,0.7L524.3,418z M123.2,415.8H521l-71.3-172.9H123.2V415.8z"/>
<rect x="223.9" y="295.4" class="st0" width="178.4" height="16.4"/>
<rect x="223.9" y="329.3" class="st0" width="178.4" height="16.4"/>
<rect x="223.9" y="363.3" class="st0" width="178.4" height="16.4"/>
<path class="st2" d="M12,586.3c-6.6,0-12-5.4-12-12s5.4-12,12-12s12,5.4,12,12C24,581,18.6,586.3,12,586.3z M12,564.3
	c-5.5,0-10,4.5-10,10s4.5,10,10,10s10-4.5,10-10C22,568.8,17.5,564.4,12,564.3z"/>
<path class="st0" d="M433.8,134.6h-19.7v-19.7h19.7V134.6z M415.6,133.1h16.7v-16.7h-16.7V133.1z"/>
<path class="st2" d="M60.5,138.7L47,124.3l14.4-13.5l13.5,14.4L60.5,138.7z M49.2,124.4l11.4,12.2l12.2-11.4L61.4,113L49.2,124.4z"
	/>
</svg>
